<svg width="15" height="13" viewBox="0 0 15 13" fill="none" xmlns="http://www.w3.org/2000/svg">
<path fill-rule="evenodd" clip-rule="evenodd" d="M7.00437 9.27125L9.36 8.105L6.94562 6.04562L7.6925 5.67625L11.6006 6.99563L13.4675 6.07125C13.96 5.82438 14.7731 5.89063 14.9575 6.26313C14.9869 6.3225 15 6.39 15 6.4625C14.9981 6.84312 14.6169 7.35875 14.2069 7.565L12.34 8.48937L11.0206 12.3975L10.2737 12.7669L10.0994 9.59875L7.74375 10.765L7.2575 11.9356L6.73563 12.1944L6.5525 10.425L5.25625 9.20687L5.77875 8.94812L7.00437 9.27125V9.27125ZM5.6375 11.8925C2.625 12.8556 0.244375 10.4075 0 9C0.983125 10.0831 2.89 11.0381 4.98313 10.41L5.53688 10.9344L5.6375 11.8925ZM0.08375 7.52687C0.02875 7.1925 0 6.84938 0 6.5C0 3.04813 2.79813 0.25 6.25 0.25C9.32938 0.25 11.8894 2.47812 12.405 5.41L11.4013 5.91125C10.62 5.61437 8.62562 4.86937 8.62562 4.86937C8.2225 4.7275 7.78875 4.585 7.57125 4.65813C7.625 4.42125 7.46875 4.20813 7.23312 4.03688C7.175 3.99438 6.70563 3.66938 6.8325 3.88313L7.24375 4.29188C7.22313 4.30563 7.13562 4.14312 7.13562 4.26187C7.16312 4.19187 7.14562 4.56375 7.08125 4.44187C7.05312 4.39562 7.12813 4.37 7.08438 4.30312C7.08438 4.25875 6.96625 4.21562 6.9425 4.18562C6.8775 4.10437 6.70437 3.92625 6.61062 3.88375C6.585 3.87188 6.21312 3.92938 6.18187 3.94125L6.08875 4.10312C6.01062 4.13187 5.93875 4.16875 5.87 4.21438L5.78875 4.39813C5.7525 4.42938 5.39 4.54938 5.38813 4.55438C5.40375 4.515 5.13438 4.465 5.15188 4.38688C5.17188 4.30125 5.26313 4.0325 5.23938 3.935C5.21438 3.83187 5.79875 4.0825 5.83687 3.81187C5.85187 3.695 5.86062 3.55813 5.67312 3.53875C5.70875 3.5425 6.03563 3.41062 6.08938 3.35125C6.16563 3.26375 6.34 3.12 6.46688 3.12C6.61438 3.12 6.5825 2.905 6.65062 2.8C6.71875 2.8275 6.61375 2.99562 6.69563 3.06375C6.69063 3.01062 6.9275 3.09313 6.95063 3.08125C7.005 3.05188 7.3075 3.06937 7.26062 2.92687C7.20812 2.7825 7.28688 2.82563 7.35438 2.795C7.3425 2.8 7.53125 2.47313 7.56375 2.58C7.54188 2.47 7.345 2.61875 7.27625 2.61375C7.1175 2.60063 7.18438 2.3425 7.245 2.26688C7.29125 2.20688 7.11812 2.13375 7.11625 2.24813C7.11312 2.41938 6.95375 2.57438 6.99 2.8025C7.04688 3.14563 6.6075 2.72 6.56937 2.74312C6.42312 2.83125 6.30437 2.63188 6.37937 2.51125C6.45687 2.38875 6.64188 2.395 6.71938 2.26375C6.77313 2.17125 6.83562 2.06375 6.92 1.99313C7.19812 1.75938 7.275 1.94625 7.5525 1.97188C7.82437 1.99688 7.64437 2.03625 7.6075 2.14063C7.57125 2.24 7.75625 2.275 7.82 2.19187C7.85688 2.14437 7.94 2.02375 7.97562 1.935C8.02187 1.81938 8.445 1.8325 8.14937 1.65563C7.95437 1.53938 7.10562 1.30562 6.53687 1.30562C6.41375 1.30562 6.32813 1.44188 6.23438 1.52C6.04875 1.67375 5.57438 1.97562 5.31 1.88375C5.03938 1.79062 4.46062 2.2275 4.36812 2.23063C4.33375 2.2325 4.36938 1.9 4.55438 1.87625C4.47375 1.8875 5.20375 1.5075 5.18375 1.42812C5.16 1.33437 3.72625 1.85625 3.79 1.96125C3.82 2.00875 3.94563 2.00875 3.78188 2.11437C3.68813 2.17062 3.5875 2.53125 3.49937 2.53125C3.23625 2.64625 3.22 2.305 2.9275 2.74438L2.46125 2.9325C1.77 3.66687 1.29188 4.5975 1.11813 5.63125C1.11125 5.67312 1.29188 5.74875 1.31563 5.7775C1.37375 5.8475 1.37375 6.14813 1.4025 6.24688C1.47437 6.49563 1.65188 6.63437 1.78813 6.86062C1.86813 6.99562 2.00125 7.33687 1.95937 7.47812C2.01625 7.38562 2.51687 7.90312 2.60812 8.01062C2.82375 8.26437 2.99062 8.57187 2.64 8.8225C2.54875 8.88875 2.71812 9.23375 2.7075 9.42875C1.1125 9.12063 0.08375 7.52687 0.08375 7.52687V7.52687ZM6.52625 8.04688C6.52 7.94313 6.455 7.82 6.31938 7.85938C6.02563 7.945 6.115 7.62938 5.90125 7.64438C5.74688 7.655 5.62 7.75313 5.47687 7.79625C5.29687 7.85 5.1125 7.75375 4.93437 7.73125C4.20125 7.63875 3.9625 6.80125 4.15375 6.19625C4.17312 6.0975 4.09437 5.91375 4.12875 5.8375C4.21062 5.65437 4.37938 5.44813 4.52563 5.30938C4.6075 5.23125 4.71375 5.25125 4.81063 5.19062C4.96 5.09625 4.96188 4.9025 5.10813 4.78375C5.31688 4.61375 5.60125 4.6175 5.87313 4.58187C6.0175 4.5625 6.56875 4.44312 6.65563 4.55062C6.65563 4.57 6.75 4.85063 6.65375 4.84938L6.64563 4.84875L6.65375 4.84938C6.70937 4.85438 6.77 4.88063 6.83375 4.91563L6.47438 5.09375L6.36375 5.15687C6.275 5.215 6.195 5.28625 6.1275 5.3675C5.93687 5.59812 5.85125 5.90437 5.89437 6.20062C5.91 6.30562 5.94125 6.40812 5.98688 6.50375C6.0325 6.59937 6.0925 6.68812 6.16437 6.76625L6.25625 6.85438L7.44438 7.8675L6.89 8.1425L6.52625 8.04688V8.04688ZM6.845 4.50563C6.82687 4.47125 7.02313 4.45313 7.05813 4.45313C7.09688 4.4575 6.95687 4.68813 6.845 4.50563ZM5.725 2.90563L5.78125 2.88938L5.75437 2.96062C5.79937 3.04125 5.76625 3.08937 5.75875 3.13312L5.68125 3.18125C5.65375 3.21625 5.81563 3.22063 5.81688 3.22563C5.82313 3.24313 5.62188 3.27187 5.65938 3.31437C5.70875 3.38562 6.08875 3.21312 6.02813 3.22312C6.145 3.16375 6.04313 3.1575 5.9775 3.12375C5.955 3.01188 5.93625 2.83875 5.86688 2.77L5.9125 2.71688C5.80438 2.56125 5.725 2.90563 5.725 2.90563ZM5.45625 3.18938C5.41187 3.2075 5.36812 3.17938 5.41125 3.13563L5.45687 3.08L5.4525 3.055L5.48875 3.01L5.52625 3.00063L5.60375 2.94625C5.62625 2.95125 5.67937 2.995 5.66125 3.02312L5.62 3.07438C5.61062 3.16125 5.52313 3.16063 5.4575 3.18875L5.45625 3.18938L5.4575 3.18875L5.45625 3.18938V3.18938Z" fill="#456EB4"/>
</svg>
